<?xml version="1.0" encoding="UTF-8" standalone="no"?>
<svg width="8.46667mm" height="4.23333mm" xmlns="http://www.w3.org/2000/svg" xmlns:xlink="http://www.w3.org/1999/xlink"
    version="1.2" baseProfile="tiny">
    <g fill="none" stroke="black" stroke-width="1" fill-rule="evenodd" stroke-linecap="square" stroke-linejoin="bevel">

        <g fill="#000000" fill-opacity="1" stroke="#000000" stroke-opacity="1" stroke-width="1" stroke-linecap="butt"
            stroke-linejoin="miter" stroke-miterlimit="2" transform="matrix(1,0,0,1,0,0)">
        </g>

        <g fill="#000000" fill-opacity="1" stroke="#000000" stroke-opacity="1" stroke-width="1" stroke-linecap="butt"
            stroke-linejoin="miter" stroke-miterlimit="2" transform="matrix(1,0,0,1,0,0)">
        </g>

        <g fill="#000000" fill-opacity="1" stroke="#000000" stroke-opacity="1" stroke-width="1" stroke-linecap="butt"
            stroke-linejoin="miter" stroke-miterlimit="2" transform="matrix(1,0,0,1,0,0)">
        </g>

        <g fill="#000000" fill-opacity="1" stroke="#000000" stroke-opacity="1" stroke-width="1" stroke-linecap="butt"
            stroke-linejoin="miter" stroke-miterlimit="2" transform="matrix(1,0,0,1,0,0)">
        </g>

        <g fill="#000000" fill-opacity="1" stroke="#000000" stroke-opacity="1" stroke-width="1" stroke-linecap="butt"
            stroke-linejoin="miter" stroke-miterlimit="2" transform="matrix(1,0,0,1,8,8)">
        </g>

        <g fill="#e61937" fill-opacity="1" stroke="none" transform="matrix(1,0,0,1,8,8)">
            <path vector-effect="none" fill-rule="evenodd"
                d="M1.866,7.909 C0.969,7.909 0.521,7.019 1.156,6.498 L7.633,1.173 C8.026,0.85 8.666,0.85 9.059,1.173 L15.537,6.498 C16.171,7.019 15.723,7.909 14.826,7.909 L1.866,7.909" />
        </g>

        <g fill="#000000" fill-opacity="1" stroke="#000000" stroke-opacity="1" stroke-width="1" stroke-linecap="butt"
            stroke-linejoin="miter" stroke-miterlimit="2" transform="matrix(1,0,0,1,8,8)">
        </g>

        <g fill="#000000" fill-opacity="1" stroke="#000000" stroke-opacity="1" stroke-width="1" stroke-linecap="butt"
            stroke-linejoin="miter" stroke-miterlimit="2" transform="matrix(1,0,0,1,8,8)">
        </g>

        <g fill="#000000" fill-opacity="1" stroke="#000000" stroke-opacity="1" stroke-width="1" stroke-linecap="butt"
            stroke-linejoin="miter" stroke-miterlimit="2" transform="matrix(1,0,0,1,0,0)">
        </g>

        <g fill="#000000" fill-opacity="1" stroke="#000000" stroke-opacity="1" stroke-width="1" stroke-linecap="butt"
            stroke-linejoin="miter" stroke-miterlimit="2" transform="matrix(1,0,0,1,0,0)">
        </g>

        <g fill="#000000" fill-opacity="1" stroke="#000000" stroke-opacity="1" stroke-width="1" stroke-linecap="butt"
            stroke-linejoin="miter" stroke-miterlimit="2" transform="matrix(1,0,0,1,0,0)">
        </g>

        <g fill="#000000" fill-opacity="1" stroke="#000000" stroke-opacity="1" stroke-width="1" stroke-linecap="butt"
            stroke-linejoin="miter" stroke-miterlimit="2" transform="matrix(1,0,0,1,0,0)">
        </g>

        <g fill="#000000" fill-opacity="1" stroke="#000000" stroke-opacity="1" stroke-width="1" stroke-linecap="butt"
            stroke-linejoin="miter" stroke-miterlimit="2" transform="matrix(1,0,0,1,8,8)">
        </g>

        <g fill="#000000" fill-opacity="1" stroke="#000000" stroke-opacity="1" stroke-width="1" stroke-linecap="butt"
            stroke-linejoin="miter" stroke-miterlimit="2" transform="matrix(1,0,0,1,0,0)">
        </g>

        <g fill="#000000" fill-opacity="1" stroke="#000000" stroke-opacity="1" stroke-width="1" stroke-linecap="butt"
            stroke-linejoin="miter" stroke-miterlimit="2" transform="matrix(1,0,0,1,0,0)">
        </g>

        <g fill="#000000" fill-opacity="1" stroke="#000000" stroke-opacity="1" stroke-width="1" stroke-linecap="butt"
            stroke-linejoin="miter" stroke-miterlimit="2" transform="matrix(1,0,0,1,0,0)">
        </g>

        <g fill="#000000" fill-opacity="1" stroke="#000000" stroke-opacity="1" stroke-width="1" stroke-linecap="butt"
            stroke-linejoin="miter" stroke-miterlimit="2" transform="matrix(1,0,0,1,0,0)">
        </g>

        <g fill="#000000" fill-opacity="1" stroke="#000000" stroke-opacity="1" stroke-width="1" stroke-linecap="butt"
            stroke-linejoin="miter" stroke-miterlimit="2" transform="matrix(1,0,0,1,0,0)">
        </g>

        <g fill="#000000" fill-opacity="1" stroke="#000000" stroke-opacity="1" stroke-width="1" stroke-linecap="butt"
            stroke-linejoin="miter" stroke-miterlimit="2" transform="matrix(1,0,0,1,0,0)">
        </g>
    </g>
</svg>