<?xml version="1.0" encoding="utf-8"?>
<!-- Generator: Adobe Illustrator 27.0.0, SVG Export Plug-In . SVG Version: 6.00 Build 0)  -->
<svg version="1.1" id="Layer_1" xmlns="http://www.w3.org/2000/svg" xmlns:xlink="http://www.w3.org/1999/xlink" x="0px" y="0px"
	 viewBox="0 0 195.3 195.3" style="enable-background:new 0 0 195.3 195.3;" xml:space="preserve">
<style type="text/css">
	.st0{fill:#841E2C;}
	.st1{fill:#FFFFFF;}
</style>
<g id="BestPrice-SVG" transform="matrix(0.985, -0.174, 0.174, 0.985, 405.499, -378.776)">
	
		<ellipse id="Ellipse_3" transform="matrix(-0.9848 -0.174 0.174 -0.9848 -838.2319 757.6021)" class="st0" cx="-385.9" cy="415.5" rx="97.6" ry="97.6"/>
	<g id="Group_85" transform="translate(-576.238 234.708)">
		<g id="Group_81" transform="translate(121.457 113.292)">
			<path id="Path_88" class="st1" d="M-7.9,22.9l9.7,5.7l-1.6,2.8l-3.6-2.1l-1.4,2.4l3.6,2.1l-1.6,2.8l-9.7-5.7l1.6-2.8l3.4,2
				l1.4-2.4l-3.4-2L-7.9,22.9z"/>
			<path id="Path_89" class="st1" d="M-0.3,21.7c-2.5-2.1-2.8-5.9-0.7-8.4s5.9-2.8,8.4-0.7c2.5,2.1,2.8,5.9,0.7,8.4c0,0,0,0-0.1,0.1
				c-2.1,2.5-5.7,2.8-8.2,0.8C-0.2,21.7-0.3,21.7-0.3,21.7z M5.4,15.1c-1.1-1-2.9-0.9-3.9,0.3c-1,1.1-0.9,2.9,0.3,3.9
				s2.9,0.9,3.9-0.3c0,0,0,0,0,0c1-1.1,0.9-2.8-0.2-3.8C5.5,15.2,5.4,15.1,5.4,15.1L5.4,15.1z"/>
			<path id="Path_90" class="st1" d="M18,6.9l2,2.4l-5.3,4.4L7.5,5.1L10,3l5.2,6.2L18,6.9z"/>
			<path id="Path_91" class="st1" d="M19.7-4.1l6.2,9.4l-2.7,1.8L17-2.3L19.7-4.1z"/>
			<path id="Path_92" class="st1" d="M36.3-6.5c1.4,2.7,0.3,5.9-2.3,7.3c-0.1,0-0.1,0.1-0.2,0.1l-4.2,2L24.8-7.2l4.2-2
				c2.7-1.3,6-0.2,7.3,2.5C36.3-6.6,36.3-6.6,36.3-6.5z M33.4-5.1c-0.4-1.2-1.7-1.8-2.9-1.4c-0.1,0-0.1,0-0.2,0.1l-1.2,0.6l2.2,4.5
				l1.2-0.6c1.1-0.6,1.6-1.9,1-3.1C33.5-5,33.5-5.1,33.4-5.1L33.4-5.1z"/>
			<path id="Path_93" class="st1" d="M47.6-5.7l-3.1,0.9l0,1.5l-3.3,0.9l0.4-11.8l3.6-1l6.5,9.8l-3.3,0.9L47.6-5.7z M46.2-8L44.4-11
				l0.1,3.6L46.2-8z"/>
			<path id="Path_94" class="st1" d="M59.3-10.7l0.5,4.2l-3.2,0.4l-0.5-4.2l-4.6-6.4l3.5-0.4l2.3,3.7l1.3-4.1l3.5-0.4L59.3-10.7z"/>
			<path id="Path_95" class="st1" d="M73-9.5l2.9-1.3c0.2,0.9,0.9,1.6,1.9,1.6c0.8,0.1,1.1-0.1,1.1-0.5c0.1-0.6-0.8-0.8-1.9-1.2
				c-1.8-0.8-3.2-1.9-2.9-4c0.2-2,2-3.4,4.4-3.1c1.8,0.1,3.4,1.3,3.9,3.1l-2.8,1.3c-0.1-0.7-0.7-1.2-1.4-1.3
				c-0.6-0.1-0.9,0.2-0.9,0.5c-0.1,0.5,0.5,0.7,1.7,1.2c1.7,0.7,3.4,1.6,3.1,3.9C81.9-7,80-5.9,77.4-6.2C74.9-6.4,73.4-7.8,73-9.5z"
				/>
			<path id="Path_96" class="st1" d="M91.6-5.1l-3.1-0.9l-0.8,1.3l-3.3-0.9l6.4-9.9l3.6,1l0.5,11.8l-3.3-0.9L91.6-5.1z M91.6-7.7
				l0-3.6l-1.8,3.1L91.6-7.7z"/>
			<path id="Path_97" class="st1" d="M101.4-12.2l3.2,1.5l-1.3,7.3l4.6-5.7l3.2,1.5L103.3,1L100-0.5L101.4-12.2z"/>
			<path id="Path_98" class="st1" d="M118.3-3.3l-6,9.5l-2.7-1.7l6-9.5L118.3-3.3z"/>
			<path id="Path_99" class="st1" d="M130.4,6l-7.2,8.6l-2-1.6l0.6-6.2l-3.3,3.9L116,8.6l7.2-8.6l2,1.6l-0.6,6.2l3.3-3.9L130.4,6z"
				/>
			<path id="Path_100" class="st1" d="M137.5,22.8c-2.2,2-5.6,1.8-7.5-0.4c-0.1-0.1-0.2-0.3-0.3-0.4c-2.1-2.5-1.8-6.2,0.6-8.3
				c2.5-2.1,6.2-1.8,8.3,0.6c1.3,1.5,1.7,3.6,1.2,5.5l-2.9-1.1c0.2-0.8,0-1.7-0.6-2.3c-0.9-1.1-2.5-1.3-3.6-0.5
				c-0.1,0.1-0.1,0.1-0.2,0.2c-1.2,0.9-1.5,2.5-0.6,3.7c0.1,0.1,0.1,0.2,0.2,0.3c0.5,0.8,1.4,1.1,2.3,0.9l-1.5-1.8l2.1-1.7l3.7,4.4
				L137.5,22.8z"/>
			<path id="Path_101" class="st1" d="M137.2,27.3l2.8,1.6c-0.6,0.7-0.7,1.7-0.2,2.5c0.4,0.7,0.8,0.8,1.1,0.6
				c0.5-0.3,0.1-1.1-0.1-2.2c-0.5-1.9-0.4-3.7,1.4-4.7c1.7-1,3.9-0.4,5.1,1.7c1,1.5,1,3.5-0.1,5l-2.7-1.5c0.5-0.5,0.6-1.3,0.2-1.9
				c-0.3-0.5-0.7-0.6-0.9-0.4c-0.4,0.3-0.3,0.8,0,2.1c0.5,1.8,0.8,3.6-1.3,4.8c-2,1.2-4,0.3-5.3-1.9
				C135.9,30.6,136.1,28.6,137.2,27.3z"/>
		</g>
		<g id="Group_82" transform="translate(127.959 239.559)">
			<path id="Path_102" class="st1" d="M-10.3-16.8c2.3-1.5,5.3-0.8,6.8,1.5C-2-13-2.7-9.9-5-8.4C-7.3-7-10.3-7.7-11.8-10
				c0,0,0,0,0,0C-13.2-12.2-12.6-15.3-10.3-16.8C-10.3-16.7-10.3-16.8-10.3-16.8z M-5.8-9.8c1.6-1,2-3.1,1-4.7c-1-1.6-3.1-2-4.7-1
				c-1.5,1-2,3.1-1,4.6c1,1.6,3,2,4.6,1.1C-5.9-9.7-5.8-9.7-5.8-9.8L-5.8-9.8z"/>
			<path id="Path_103" class="st1" d="M6.5-2.3l-7.1,6.3l-0.8-0.9l1.8-7.6l-4.8,4.3l-1-1.2l7.1-6.3l0.8,0.9L0.7,0.9l4.8-4.3L6.5-2.3
				z"/>
			<path id="Path_104" class="st1" d="M11.9,8.9c1.5-2.3,4.6-2.9,6.8-1.3s2.9,4.6,1.3,6.8c-1.5,2.3-4.6,2.9-6.8,1.3c0,0,0,0,0,0
				C11,14.2,10.4,11.2,11.9,8.9C11.9,8.9,11.9,8.9,11.9,8.9z M18.8,13.5c1-1.6,0.6-3.6-1-4.7s-3.6-0.6-4.7,1c-1,1.5-0.6,3.6,0.9,4.6
				c1.5,1,3.6,0.7,4.6-0.8C18.7,13.6,18.7,13.6,18.8,13.5L18.8,13.5z"/>
			<path id="Path_105" class="st1" d="M23.7,18.1l2.7-5.8l1.4,0.7l-2.6,5.7c-0.4,1.1,0.1,2.2,1.2,2.6c1,0.4,2,0,2.5-0.9l2.6-5.7
				l1.4,0.7l-2.6,5.8c-1,1.7-3.2,2.4-4.9,1.4C23.8,21.6,23.1,19.8,23.7,18.1L23.7,18.1z"/>
			<path id="Path_106" class="st1" d="M38.9,23.7l-1.8-0.5l-1,3.3l-1.5-0.4l2.6-9.1l3.7,1.1c1.6,0.5,2.6,2.1,2.1,3.8c0,0,0,0,0,0
				c-0.3,1.2-1.4,2-2.6,2.1l1,4.1l-1.6-0.5L38.9,23.7z M37.5,21.9l2.2,0.6c0.9,0.2,1.7-0.3,1.9-1.2c0.2-0.8-0.3-1.6-1-1.8l-2.2-0.6
				L37.5,21.9z"/>
			<path id="Path_107" class="st1" d="M56.1,22.2l-0.2,2.7l3.9,0.2l-0.1,1.5l-3.9-0.2l-0.2,3.8L54,30.1l0.6-9.5l5.6,0.3l-0.1,1.5
				L56.1,22.2z"/>
			<path id="Path_108" class="st1" d="M70.2,28.1l-4,0.3l-0.5,2L64,30.5l2.7-9.7l1.9-0.1l4.1,9.2L71,30L70.2,28.1z M69.6,26.7
				l-1.8-4.2l-1.2,4.4L69.6,26.7z"/>
			<path id="Path_109" class="st1" d="M74.5,20l1.7-0.4l4.1,6.9l0.8-8l1.7-0.4l-1.2,10l-1.8,0.4L74.5,20z"/>
			<path id="Path_110" class="st1" d="M87.4,21.8c-1-2.5,0.3-5.4,2.8-6.4c2.5-1,5.4,0.3,6.4,2.8c1,2.5-0.3,5.4-2.8,6.4
				C91.3,25.6,88.4,24.3,87.4,21.8C87.4,21.8,87.4,21.8,87.4,21.8z M95.1,18.7c-0.7-1.7-2.7-2.6-4.4-1.9c-1.7,0.7-2.6,2.7-1.9,4.4
				c0.7,1.7,2.6,2.5,4.4,1.9c1.7-0.6,2.6-2.6,1.9-4.3C95.1,18.8,95.1,18.8,95.1,18.7z"/>
			<path id="Path_111" class="st1" d="M104.6,15.2l-1.6,0.9l1.8,3l-1.3,0.8l-4.8-8.2l3.3-1.9c1.4-0.9,3.3-0.4,4.2,1c0,0,0,0,0,0
				c0.6,1.1,0.5,2.4-0.2,3.3l3.7,2.1l-1.5,0.9L104.6,15.2z M102.3,14.9l1.9-1.1c0.7-0.5,0.9-1.5,0.4-2.2c-0.5-0.7-1.3-0.9-2-0.5
				l-1.9,1.1L102.3,14.9z"/>
			<path id="Path_112" class="st1" d="M109.4,4.7l5.7,7.6l-1.2,0.9l-5.7-7.6L109.4,4.7z"/>
			<path id="Path_113" class="st1" d="M118.7-1.6l-1.9,1.8l5.5,5.8l-1.1,1.1l-5.5-5.8l-2,1.8l-1-1.1l5-4.8L118.7-1.6z"/>
			<path id="Path_114" class="st1" d="M130.3-5.1l1.2,0.9l-3.6,4.5l-7.4-6l3.6-4.4l1.2,0.9L122.6-6l1.9,1.6l2.4-2.9l1.1,0.9
				l-2.4,2.9l2,1.6L130.3-5.1z"/>
			<path id="Path_115" class="st1" d="M132.6-9.5l0-1.6c1,0.3,2.1-0.2,2.6-1.2c0.6-1.1,0.4-1.8-0.1-2.2c-0.7-0.4-1.4,0-2.5,1
				c-1.2,1-2.4,2-3.9,1c-1.3-0.8-1.7-2.6-0.9-3.9c0-0.1,0.1-0.1,0.1-0.2c0.7-1.2,2.1-1.9,3.5-1.7l0,1.5c-0.9-0.2-1.7,0.2-2.2,1
				c-0.5,0.8-0.4,1.5,0.2,1.9s1.2,0.1,2.3-0.9c1.2-1.1,2.5-2.2,4.1-1.2c1.5,0.9,1.7,2.6,0.6,4.3C135.7-10,134.2-9.2,132.6-9.5z"/>
		</g>
		<path id="Path_116" class="st1" d="M190.1,217c0.3-0.4,0.8-0.9,1.2-1.4c0.4-0.5,0.8-0.1,1.1,0.1c0.3,0.2,0.4,0.6,0.3,0.9
			c0,0,0,0.1-0.1,0.1c-0.4,0.5-0.8,1-1.2,1.5c-0.6,0.5-0.6,1.1-0.5,1.8c0.4-0.5,0.7-0.9,1-1.2c0.3-0.4,0.8-0.6,1.3-0.4
			c0.4,0.1,0.7,0.6,0.6,1c-0.1,0.2-0.2,0.5-0.4,0.7c-0.8,0.9-1.6,1.8-2.4,2.6c-0.1,0.1-0.1,0.2-0.1,0.4c0,0.4,0,0.8,0,1.4
			c0.5-0.6,0.9-1.1,1.4-1.6c0.6-0.6,1.4-0.7,1.8-0.1c0.3,0.3,0.2,0.7,0,1c-1,1.1-2,2.2-3,3.3c-0.1,0.1-0.1,0.2-0.1,0.3
			c0,1.2,0,2.4,0,3.7c1.1-0.6,2.3-1.2,3.3-1.9c0.2-0.2,0.3-0.6,0.4-1c0.4-1.1,0.7-2.3,1.1-3.4c0.2-0.5,0.6-0.7,1.1-0.6
			c0.7,0.4,0.9,0.8,0.6,1.4c-0.3,0.6-0.4,1.3-0.6,2l0.2,0.1c0.5-0.3,0.9-0.7,1.3-1.2c0.2-0.5,0.4-1.1,0.5-1.7
			c0.2-0.6,0.4-1.2,0.6-1.8c0.2-0.3,0.5-0.5,0.9-0.5c0.5,0,0.9,0.5,0.8,1c0,0.1,0,0.1,0,0.2c-0.2,0.6-0.3,1.2-0.5,1.7
			c1-0.2,1.2-1,1.5-1.9c0.1-0.5,0.4-0.9,0.6-1.3c0.2-0.4,0.6-0.3,1-0.2c0.4,0.1,0.6,0.6,0.5,1c-0.1,0.6-0.3,1.1-0.5,1.7
			c0.5,0.1,1.1,0.2,1.6,0.4c0.5,0.1,0.9,0.7,0.7,1.2c-0.2,0.5-0.7,0.8-1.2,0.6c0,0,0,0,0,0c-0.5-0.2-1.1-0.3-1.6-0.3
			c-0.5,0-1,0.1-1.5,0.3l0,0.2l1.6,0.4c0.5,0.1,0.9,0.5,0.8,1c0,0,0,0.1,0,0.1c-0.1,0.5-0.5,0.9-1,0.8c-0.1,0-0.2,0-0.2-0.1
			c-1.1-0.2-2.2-0.5-3.2-0.7c-0.8-0.2-1.3,0.4-1.9,0.7c0.8,0.1,1.5,0.3,2.2,0.4c0.6,0.1,0.9,0.6,0.8,1.2c0,0.1,0,0.1,0,0.2
			c-0.1,0.5-0.9,0.7-1.5,0.5c-0.9-0.2-1.9-0.4-2.8-0.7c-0.2,0-0.3-0.1-0.5-0.1c-0.4-0.1-0.8-0.1-1.2,0.1c-0.8,0.5-1.7,1-2.6,1.5
			c-0.1,0.1-0.2,0.2-0.3,0.2c1,0.5,2,1,2.9,1.6c0.4,0.2,1,0.3,1.4,0.1c0.9-0.1,1.9-0.4,2.8-0.6c0.1,0,0.3-0.1,0.4-0.1
			c0.3-0.2,0.8-0.1,1,0.2c0,0,0,0,0,0.1c0.2,0.3,0.3,0.7,0.2,1c-0.1,0.2-0.4,0.5-0.7,0.5c-0.7,0.2-1.4,0.4-2.2,0.6
			c0.3,0.2,0.4,0.4,0.6,0.4c0.4,0.1,0.7,0.5,1.3,0.2c1.1-0.3,2.1-0.6,3.2-0.7c0.7-0.1,1.1,0.3,1.2,0.9c0.1,0.5-0.4,0.9-0.9,1
			c-0.5,0.1-1,0.2-1.5,0.4l0.9,0.6c0.4-0.1,0.7-0.1,1-0.2c0.5-0.1,1-0.2,1.6-0.3c0.5,0,0.9,0.4,1,0.9c0,0,0,0,0,0c0,0.5-0.4,1-0.9,1
			c-0.2,0-0.5,0.1-0.7,0.2s-0.5,0.1-0.8,0.1c0.1,0.6,0.3,1.1,0.4,1.7c0.1,0.4-0.1,0.9-0.5,1.1c-0.5,0.2-1,0-1.2-0.5c0,0,0-0.1,0-0.1
			c-0.2-0.5-0.4-1-0.5-1.6c-0.1-0.5-0.4-0.9-0.8-1c-0.1-0.1-0.3-0.2-0.4-0.3c0.2,0.7,0.3,1.2,0.5,1.8c0.2,0.5-0.1,1.1-0.6,1.2
			c0,0,0,0,0,0c-0.5,0.1-1-0.1-1.1-0.6c0,0,0-0.1,0-0.1c-0.3-1.1-0.7-2.2-1-3.3c-0.3-0.6-0.9-1-1.5-1.1c0.2,0.7,0.4,1.4,0.6,2
			c0.2,0.5,0,1.1-0.5,1.3c0,0,0,0,0,0c-0.5,0.1-1-0.1-1.2-0.6c-0.4-1-0.7-2-0.9-3.1c-0.2-1-0.9-1.7-1.8-2.1c-0.5-0.2-1-0.6-1.5-0.9
			c-0.2-0.1-0.4-0.2-0.6-0.3c0,1.3,0,2.5,0,3.7c0,0.3,0.4,0.7,0.6,0.9c0.8,0.8,1.6,1.6,2.3,2.5c0.2,0.3,0.3,0.7,0.2,1
			c-0.2,0.3-0.5,0.6-0.8,0.7c-0.2,0.1-0.5-0.2-0.7-0.4c-0.6-0.5-1.2-1-1.7-1.5c-0.3,0.9,0.2,1.7,1,2.4c0.6,0.6,1.1,1.2,1.7,1.8
			c0.4,0.3,0.4,0.9,0.1,1.2c0,0-0.1,0.1-0.1,0.1c-0.4,0.3-1,0.3-1.3-0.1c-0.4-0.4-0.8-0.8-1.2-1.2c-0.2,0.9-0.1,1.3,0.7,2
			c0.4,0.4,0.6,0.8,1,1.2c0.5,0.5,0.1,0.8-0.3,1.1c-0.3,0.3-0.7,0.4-1,0.1c0,0-0.1,0-0.1-0.1c-0.5-0.4-0.9-0.9-1.3-1.3
			c-0.4,0.4-0.8,0.9-1.3,1.3c-0.4,0.3-0.9,0.1-1.2-0.2c-0.3-0.3-0.3-0.8,0-1.1c0.3-0.5,0.7-0.9,1.1-1.3c0.6-0.5,0.4-1,0.4-1.7
			l-1.1,1.2c-0.4,0.3-0.9,0.4-1.3,0.2c-0.4-0.3-0.5-0.8-0.3-1.2c0-0.1,0.1-0.1,0.1-0.2c0.7-0.9,1.5-1.7,2.2-2.5
			c0.2-0.2,0.3-0.5,0.4-0.8c0-0.4,0-0.8,0-1.2c-0.6,0.6-1,1.2-1.5,1.7c-0.3,0.4-0.8,0.4-1.2,0.2c-0.4-0.2-0.5-0.7-0.4-1.1
			c0.1-0.2,0.2-0.4,0.4-0.6c0.8-0.9,1.7-1.8,2.5-2.7c0.1-0.1,0.2-0.3,0.3-0.5c0-1.2,0-2.4,0-3.7c-0.8,0.4-1.5,0.8-2.2,1.3
			c-0.4,0.2-0.8,0.6-1.2,0.9c-0.2,0.4-0.4,0.8-0.5,1.2c-0.3,0.9-0.5,1.7-0.8,2.6c-0.2,0.7-0.8,1-1.3,0.8c-0.6-0.3-0.8-0.9-0.5-1.5
			c0,0,0,0,0,0c0.2-0.6,0.4-1.2,0.6-1.8c-1.2,0.2-1.6,1.1-1.8,2.1c-0.2,0.8-0.5,1.6-0.7,2.4c-0.2,0.4-0.7,0.7-1.2,0.5
			c-0.5-0.2-0.8-0.9-0.5-1.4c0.2-0.5,0.3-1,0.5-1.5c-0.8,0.2-1.3,0.9-1.4,1.7c-0.1,0.4-0.2,0.8-0.4,1.1c-0.2,0.5-0.8,0.7-1.2,0.5
			c0,0-0.1,0-0.1-0.1c-0.4-0.2-0.6-0.7-0.4-1.1c0-0.1,0-0.1,0.1-0.1c0.2-0.4,0.3-0.8,0.4-1.2c0-0.1-0.1-0.2-0.2-0.3
			c-0.4-0.1-0.7-0.2-1.1-0.3c-0.4,0-0.8-0.3-1-0.7c-0.1-0.3,0-0.7,0.2-1c0.3-0.3,0.8-0.4,1.3-0.2c0.6,0.2,1.2,0.4,1.8,0.4
			c0.3,0,0.7-0.4,1.1-0.6c-0.5-0.1-1-0.2-1.4-0.4c-0.3-0.1-0.8-0.3-0.9-0.6c-0.1-0.4,0-0.7,0.2-1c0.2-0.4,0.7-0.4,1.1-0.3
			c0.9,0.2,1.9,0.4,2.8,0.7c0.6,0.2,1.2,0.1,1.7-0.3c0.2-0.1,0.3-0.2,0.5-0.2c-0.3-0.1-0.5-0.2-0.8-0.2c-0.6-0.1-1.2-0.2-1.8-0.4
			c-0.3-0.2-0.5-0.6-0.6-1c0.1-0.5,0.5-0.9,1.1-0.9c0,0,0,0,0,0c0.4,0.1,0.7,0.2,1.1,0.3c1,0.2,2,0.3,2.9,0.6
			c0.6,0.2,0.9-0.2,1.3-0.4c0.8-0.4,1.6-0.9,2.4-1.4c-0.5-0.3-0.9-0.6-1.4-0.9s-1-0.5-1.5-0.8c-0.3-0.2-0.7-0.3-1.1-0.1
			c-0.3,0.1-0.6,0.2-0.9,0.2c-0.8,0.2-1.6,0.4-2.5,0.6c-0.5,0.2-1,0-1.3-0.3c-0.3-0.4-0.3-1,0.1-1.3c0.1-0.1,0.3-0.2,0.4-0.2
			c0.7-0.2,1.4-0.3,2.1-0.5c-0.4-0.6-1.1-0.8-1.8-0.7c-1.1,0.3-2.2,0.5-3.3,0.7c-0.5,0.1-0.9-0.3-1.1-0.7c-0.1-0.5,0.2-1,0.7-1.2
			c0.6-0.1,1.1-0.2,1.8-0.3c-0.7-0.6-1.7-0.7-2.6-0.3c-0.5,0.1-1.1,0.5-1.6-0.1c-0.2-0.2-0.4-0.6-0.3-0.9c0.1-0.3,0.4-0.6,0.7-0.7
			c0.5-0.2,1.1-0.3,1.6-0.4c-0.1-0.5-0.3-1-0.4-1.4c-0.1-0.3-0.1-0.6,0-0.8c0.2-0.4,0.6-0.7,1.1-0.5c0.3,0.1,0.5,0.4,0.7,0.7
			c0.3,0.7,0.4,1.4,0.7,2c0.1,0.3,0.6,0.5,0.9,0.7l0.2-0.1c-0.1-0.5-0.3-0.9-0.5-1.3c-0.2-0.3-0.2-0.8,0.1-1.1
			c0.3-0.2,0.6-0.3,1-0.3c0.4,0,0.6,0.3,0.7,0.8c0.2,0.8,0.5,1.6,0.8,2.4c0,0,0,0,0,0c0.1,1,0.8,1.5,1.7,1.8
			c-0.2-0.7-0.5-1.4-0.7-2.1c-0.3-0.8,0.2-1.2,0.7-1.4c0.3-0.2,0.9,0.3,1.1,0.8c0.3,0.8,0.5,1.7,0.8,2.6s0.5,1.7,1.5,2.1
			c0.8,0.4,1.6,0.8,2.3,1.3c0-1.3,0.1-2.6,0-3.8c0-0.4-0.5-0.8-0.9-1.1c-0.7-0.8-1.4-1.5-2.1-2.3c-0.3-0.4-0.2-1,0.2-1.3
			c0,0,0,0,0.1,0c0.4-0.2,0.9-0.2,1.2,0.1c0.5,0.5,1,1.1,1.5,1.6c0.3-0.9,0-2-0.8-2.5c-0.7-0.6-1.3-1.3-1.8-2.1
			c-0.2-0.3-0.1-0.7,0.2-1c0,0,0,0,0,0c0.5-0.4,0.9-0.5,1.2-0.2c0.4,0.4,0.8,0.9,1.2,1.3c0.2-0.7,0-1.4-0.5-1.9
			c-0.4-0.3-0.7-0.7-1-1.1c-0.3-0.4-0.2-0.8,0.2-1.2c0.4-0.4,0.8-0.2,1.1,0C189.1,216.1,189.5,216.5,190.1,217z"/>
		<g id="Group_84" transform="translate(121.692 162.774)">
			<path id="Path_117" class="st1" d="M50.5-11.7c0-3.5,2.7-6.3,6.2-6.4c2.4,0,4.3,1.2,4.3,3.9c0,3.4-2.7,6.3-6.2,6.4
				C52.4-7.8,50.5-9,50.5-11.7z M58.5-14.7c0-2.1-0.7-3-1.9-3c-2.5,0-3.7,3.6-3.7,6.5c0,2.1,0.7,3,1.9,3
				C57.3-8.2,58.5-11.7,58.5-14.7L58.5-14.7z"/>
			<path id="Path_118" class="st1" d="M75.6-9.4c-0.8,1.4-1.6,1.7-2.4,1.7c-1.2,0-2.2-0.7-1.9-2.7c-0.7,1.6-2.2,2.6-3.9,2.7
				c-2.5,0-3.2-1.5-2.8-4l1-5.7h-1.2l0.1-0.4H68l-1.2,7.1c-0.3,1.6-0.3,2.5,1.1,2.5c1.5,0,3.3-1.9,3.8-5l0.7-4.2h-1.2l0.1-0.4H75
				l-1.4,7.7c-0.2,1.4-0.1,1.7,0.4,1.7c0.4,0,0.8-0.4,1.3-1.2L75.6-9.4z"/>
			<path id="Path_119" class="st1" d="M87.1-16.7c0.1,0.6-0.4,1.2-1,1.3c0,0-0.1,0-0.1,0c-1.5,0-0.8-1.6-1.7-1.6
				c-0.9,0-2.3,1.8-2.8,4.9L80.7-8h-2.4l1.7-9.5h-1.2l0.1-0.4h3.6l-0.4,2.4c0.9-1.9,2.2-2.6,3.4-2.6C86.7-18.1,87.1-17.4,87.1-16.7z
				"/>
			<path id="Path_120" class="st1" d="M2.5,15.3c0,3.5-2.6,5.8-6.7,5.8h-8.4V1.3h7.8c3.9,0,6.6,2.1,6.6,5.6c0.1,1.5-0.6,3-1.8,3.9
				C1.6,11.8,2.5,13.5,2.5,15.3z M-7.5,5.8v3.1h2.6C-4,9-3.3,8.4-3.2,7.6c0-0.1,0-0.1,0-0.2c0-0.8-0.6-1.5-1.5-1.6c0,0-0.1,0-0.1,0
				H-7.5z M-2.6,14.9c0-0.9-0.6-1.6-1.5-1.7c-0.1,0-0.1,0-0.2,0h-3.2v3.3h3.2c0.9,0.1,1.7-0.6,1.7-1.5C-2.6,15-2.6,15-2.6,14.9
				L-2.6,14.9z"/>
			<path id="Path_121" class="st1" d="M17.3,16.4v4.8H4.5V1.3l12.6,0V6L9.6,6v2.8h6.8v4.7H9.6v2.9L17.3,16.4z"/>
			<path id="Path_122" class="st1" d="M18.7,16.6l4.3-2.5c0.6,1.7,2.2,2.7,3.9,2.6c1.8,0,2.3-0.7,2.3-1.3c0-1.1-1.3-1.5-3.8-2.2
				c-3.1-0.9-5.9-2.5-5.9-6.2s3-6.2,6.9-6.2c3.2-0.1,6.1,1.7,7.4,4.5l-4.3,2.5c-0.4-1.3-1.7-2.2-3.1-2.2c-1.2,0-1.8,0.6-1.8,1.3
				c0,0.9,0.7,1.4,3.4,2.2c3.1,0.9,6.3,2,6.3,6.2c0,3.9-3.1,6.2-7.5,6.2C22.5,21.6,19.7,19.5,18.7,16.6z"/>
			<path id="Path_123" class="st1" d="M49.4,6.2h-4.9v15h-5.1v-15h-4.9V1.3l14.9,0V6.2z"/>
			<path id="Path_124" class="st1" d="M72.5,8.2c0.1,3.8-2.9,6.9-6.7,7c-0.1,0-0.2,0-0.4,0h-2.6v6h-5.1V1.3l7.7,0
				c3.8-0.1,6.9,2.8,7.1,6.6C72.5,8,72.5,8.1,72.5,8.2z M67.4,8.2c0.1-1.1-0.8-2-1.9-2.1c0,0-0.1,0-0.1,0h-2.6v4.2h2.6
				c1.1,0,2-0.9,2-2C67.4,8.3,67.4,8.3,67.4,8.2L67.4,8.2z"/>
			<path id="Path_125" class="st1" d="M81.3,14.7h-1.8v6.4h-5.1V1.3l7.9,0c3.8-0.2,7,2.7,7.1,6.5c0,0.1,0,0.2,0,0.4
				c0,2.4-1.3,4.5-3.4,5.6l4.1,7.4h-5.4L81.3,14.7z M79.5,10.4h2.8c1.1,0,2.1-0.8,2.1-2c0-0.1,0-0.2,0-0.3C84.5,7,83.7,6,82.5,6
				c-0.1,0-0.1,0-0.2,0h-2.8V10.4z"/>
			<path id="Path_126" class="st1" d="M97.1,1.3v19.9H92V1.3L97.1,1.3z"/>
			<path id="Path_127" class="st1" d="M99.5,11.2c-0.1-5.6,4.3-10.2,9.8-10.4c0.2,0,0.3,0,0.5,0c3.5,0,6.8,1.7,8.6,4.7L114,8.1
				c-0.9-1.5-2.5-2.3-4.2-2.3c-3,0.1-5.3,2.5-5.3,5.5c0.1,2.9,2.4,5.2,5.3,5.3c1.7,0.1,3.3-0.8,4.2-2.3l4.4,2.6
				c-1.8,3-5.1,4.8-8.6,4.7c-5.6,0.1-10.2-4.3-10.4-9.8C99.5,11.5,99.5,11.4,99.5,11.2z"/>
			<path id="Path_128" class="st1" d="M133,16.4v4.8h-12.8V1.3l12.6,0V6h-7.5v2.8h6.8v4.7h-6.8v2.9L133,16.4z"/>
			<path id="Path_129" class="st1" d="M134.4,16.6l4.3-2.5c0.6,1.7,2.2,2.7,3.9,2.6c1.8,0,2.3-0.7,2.3-1.3c0-1.1-1.3-1.5-3.8-2.2
				c-3.1-0.9-5.9-2.5-5.9-6.2s3-6.2,6.9-6.2c3.2-0.1,6.1,1.7,7.4,4.5l-4.3,2.5c-0.4-1.3-1.7-2.2-3.1-2.2c-1.2,0-1.8,0.6-1.8,1.3
				c0,0.9,0.7,1.4,3.4,2.2c3.1,0.9,6.3,2,6.3,6.2c0,3.9-3.1,6.2-7.5,6.2C138.2,21.6,135.4,19.5,134.4,16.6z"/>
			<path id="Path_130" class="st1" d="M12.2,39.5c0-3.5,2.7-6.3,6.2-6.4c2.4,0,4.3,1.2,4.3,3.9c0,3.4-2.7,6.3-6.2,6.4
				C14.1,43.5,12.2,42.3,12.2,39.5z M20.2,36.6c0-2.1-0.7-3-1.9-3c-2.5,0-3.7,3.6-3.7,6.5c0,2.1,0.7,3,1.9,3
				C19.1,43.1,20.2,39.5,20.2,36.6z"/>
			<path id="Path_131" class="st1" d="M34.4,30.5c0,0.8-0.5,1.4-1.3,1.5c-0.6,0-1.1-0.3-1.1-0.9c0-0.6,0.5-0.8,0.5-1.3
				c0-0.4-0.3-0.7-0.9-0.7c-1.1,0-1.4,1.1-2,4.3v0h2.6l-0.1,0.4h-2.6l-2.2,12.1H25L27.1,34c0-0.1,0-0.1,0-0.2h-1.3l0.1-0.4h1.3
				c0.7-3.3,2.2-4.7,4.5-4.7C33.7,28.7,34.4,29.6,34.4,30.5z"/>
			<path id="Path_132" class="st1" d="M42.5,40.8c-0.2,1.1-0.4,2.1,0.9,2.1c0.6,0,1.1-0.2,1.5-0.6l0.2,0.3c-0.7,0.5-1.6,0.8-2.5,0.8
				c-1.8,0-2.9-0.8-2.5-3.1l1.1-6.5H40l0.1-0.4h1.3c1.2-0.6,2.2-1.7,2.6-3h0.3l-0.5,3h2.7l-0.1,0.4h-2.7L42.5,40.8z"/>
			<path id="Path_133" class="st1" d="M59.8,41.8c-0.8,1.4-1.6,1.7-2.4,1.7c-1.3,0-2.4-0.8-1.9-2.9l1-4.4c0.4-1.7,0.3-2.5-0.9-2.5
				c-1.6,0-3.4,1.8-3.9,4.6l-0.9,4.9h-2.4l2.5-14h-1.2l0.1-0.4h3.6l-1.2,6.8c0.7-1.5,2.3-2.5,4-2.5c2.3,0,3.1,1.5,2.5,4l-0.9,4
				c-0.3,1.4-0.1,1.7,0.3,1.7c0.4,0,0.8-0.4,1.3-1.2L59.8,41.8z"/>
			<path id="Path_134" class="st1" d="M64.9,38.2c-0.1,0.6-0.2,1.2-0.2,1.9c0,2.1,0.6,3,2,3c1.3,0,2.6-0.8,3.5-2.9l0.4,0.2
				c-0.8,2.1-2.2,3.2-4.1,3.2c-2.5,0-4.3-1.3-4.3-4c0-3.5,2.8-6.3,6.3-6.3c1.9,0,3.2,0.7,3.2,2.2c0,1.9-2.3,3-5.6,3
				C65.8,38.3,65.4,38.2,64.9,38.2z M65,37.8c0.4,0.1,0.8,0.1,1.2,0.1c1.8,0.1,3.4-1.3,3.5-3.2c0,0,0,0,0,0c0.1-0.6-0.3-1.1-0.9-1.1
				c-0.1,0-0.2,0-0.3,0C66.5,33.6,65.4,35.6,65,37.8L65,37.8z"/>
			<path id="Path_135" class="st1" d="M89,34.8c0,1-0.7,2.4-2.4,5.3l-2.8,4.6C82.5,47,81.5,48,80.1,48c-1.1,0-1.7-0.5-1.7-1.2
				c0-0.6,0.5-1.2,1.1-1.2c0,0,0,0,0,0c1.2,0,0.9,1.2,1.7,1.2c0.5,0,1.1-0.4,2-2l0.3-0.6l-2.9-10.5h-1.3l0.1-0.4h3.6l2.2,8l0.9-1.5
				c1.4-2.3,1.8-3.2,1.8-3.9c0-1-1.7-0.3-1.7-1.7c0-0.7,0.5-1.1,1.3-1.1c0.8,0,1.4,0.7,1.4,1.5C89,34.7,89,34.8,89,34.8z"/>
			<path id="Path_136" class="st1" d="M93.7,38.2c-0.1,0.6-0.2,1.2-0.2,1.9c0,2.1,0.6,3,2,3c1.3,0,2.6-0.8,3.5-2.9l0.4,0.2
				c-0.8,2.1-2.2,3.2-4.1,3.2c-2.5,0-4.3-1.3-4.3-4c0-3.5,2.8-6.3,6.3-6.3c1.9,0,3.2,0.7,3.2,2.2c0,1.9-2.3,3-5.6,3
				C94.5,38.3,94.1,38.2,93.7,38.2z M93.7,37.8c0.4,0.1,0.8,0.1,1.2,0.1c1.8,0.1,3.4-1.3,3.5-3.2c0,0,0,0,0,0
				c0.1-0.6-0.3-1.1-0.9-1.1c-0.1,0-0.2,0-0.3,0C95.3,33.6,94.2,35.6,93.7,37.8L93.7,37.8z"/>
			<path id="Path_137" class="st1" d="M113.8,41.8c-0.4,1-1.4,1.6-2.4,1.7c-1.2,0-2.2-0.8-1.9-2.7c-0.8,1.9-2,2.7-3.5,2.7
				c-2.1,0-3.5-1.4-3.5-3.8c0-3.6,2.8-6.5,5.7-6.5c1-0.1,1.9,0.3,2.5,1.1l0.2-0.9h2.4l-1.4,7.8c-0.2,1.4-0.2,1.7,0.4,1.7
				c0.4,0,0.8-0.4,1.3-1.2L113.8,41.8z M110.1,37.4l0.4-2.5c-0.3-0.8-1.1-1.3-1.9-1.3c-2,0-3.7,3-3.7,6.6c0,1.8,0.7,2.7,1.7,2.7
				C108.1,42.9,109.5,40.7,110.1,37.4z"/>
			<path id="Path_138" class="st1" d="M125.4,34.5c0.1,0.6-0.4,1.2-1,1.3c0,0-0.1,0-0.1,0c-1.5,0-0.8-1.6-1.7-1.6
				c-0.9,0-2.3,1.8-2.8,4.9l-0.7,4.2h-2.4l1.7-9.5H117l0.1-0.4h3.6l-0.4,2.4c0.9-1.9,2.2-2.6,3.4-2.6
				C124.9,33.2,125.4,33.8,125.4,34.5z"/>
		</g>
	</g>
</g>
</svg>
