<svg width="12" height="15" viewBox="0 0 12 15" fill="none" xmlns="http://www.w3.org/2000/svg">
<path d="M10.6565 4.50625L11.0733 12.5691C11.0758 12.7091 11.0227 12.8444 10.9256 12.9453C10.8286 13.0463 10.6955 13.1047 10.5555 13.1077H1.44279C1.30284 13.1047 1.16981 13.0463 1.07284 12.9453C0.975876 12.8443 0.922911 12.709 0.925519 12.5691L1.34233 4.50625H10.656H10.6565ZM7.379 0.376646H4.61931C4.38807 0.381161 4.16003 0.431213 3.94815 0.523938C3.73627 0.616664 3.54474 0.750246 3.38452 0.917044C3.2243 1.08384 3.09853 1.28059 3.0144 1.49603C2.93027 1.71147 2.88942 1.94138 2.89421 2.17261V3.60827H0.47908L0.0622648 12.5691C0.0551923 12.9424 0.196583 13.3032 0.455336 13.5724C0.71409 13.8416 1.06905 13.9971 1.44234 14.0047H10.5569C10.9303 13.9972 11.2853 13.8418 11.5441 13.5726C11.8029 13.3034 11.9442 12.9424 11.937 12.5691L11.5202 3.60827H9.10506V2.17261C9.10985 1.9413 9.069 1.71132 8.98481 1.49582C8.90063 1.28032 8.77478 1.08353 8.61447 0.916722C8.45415 0.749911 8.26249 0.616348 8.0505 0.523676C7.83851 0.431004 7.61032 0.381041 7.379 0.376646V0.376646ZM3.92927 3.60873V2.17307C3.92555 1.98632 3.99615 1.80574 4.12555 1.67104C4.25495 1.53634 4.43256 1.45855 4.61931 1.45478H7.379C7.56575 1.45855 7.74341 1.53634 7.87282 1.67104C8.00222 1.80574 8.07282 1.98632 8.0691 2.17307V3.60873H3.92927Z" fill="black"/>
</svg>
