<?xml version="1.0" encoding="utf-8"?>
<!-- Generator: Adobe Illustrator 26.0.3, SVG Export Plug-In . SVG Version: 6.00 Build 0)  -->
<svg version="1.1" baseProfile="tiny" id="Layer_1" xmlns="http://www.w3.org/2000/svg" xmlns:xlink="http://www.w3.org/1999/xlink"
     x="0px" y="0px" viewBox="0 0 186.2 74.1" overflow="visible" xml:space="preserve">
<g>
	<g>
		<g id="XMLID_13_">
			<path id="XMLID_14_" fill="#EB0A8C" d="M153.1,45h-12.7V13.2h-2.7c-14,0-49.1,25.4-49.1,25.4S54.2,13.2,39.5,13.2h-2.7V45H24.1
				V1.7h11.6c9,0,21.6,3.7,36.7,12.2c6.6,3.7,12.5,7.4,16.1,9.7c0.6-0.4,1.4-0.9,2.1-1.4c3.2-2.1,8.2-5.2,13.6-8.3
				c15-8.5,26.6-12.3,36.9-12.3h11.8L153.1,45L153.1,45z"/>
            <g>
				<path fill="#211E1F" d="M9.4,70.3c-0.2-0.4-0.3-0.7-0.6-1.3L3,56.5H0.8V72h1.6v-13c0,0.1,0.1,0.2,0.2,0.4L8.5,72l0,0.1h1.7
					L16,59.4c0.1-0.2,0.2-0.3,0.2-0.5V72h1.6V56.5h-2.1L9.4,70.3z"/>
                <path fill="#211E1F" d="M27.4,56.5L19.8,72h1.8l1.9-3.9h9.7l2,3.9H37l-7.8-15.5C29.2,56.5,27.4,56.5,27.4,56.5z M32.5,66.6h-8.2
					l4.1-8.3L32.5,66.6z"/>
                <rect x="39.1" y="56.5" fill="#211E1F" width="1.7" height="15.5"/>
                <path fill="#211E1F" d="M55.5,57.3c-1.4-0.7-2.6-0.8-4.1-0.8h-7.8V72h7c1.9,0,3.9-0.1,5.7-1.3c2-1.3,3.1-3.7,3.1-6.4
					C59.5,61.1,58,58.5,55.5,57.3z M56.4,60.1c0.8,1.1,1.3,2.6,1.3,4.3c0,2-0.6,3.6-1.8,4.6c-1.6,1.4-3.8,1.4-5.8,1.4h-4.7V58.1h6
					C52.5,58.1,54.8,58.1,56.4,60.1z"/>
                <polygon fill="#211E1F" points="64.3,64.7 76.4,64.7 76.4,63.1 64.3,63.1 64.3,58.1 77.4,58.1 77.4,56.5 62.5,56.5 62.5,72
					78,72 78,70.5 64.3,70.5 				"/>
                <polygon fill="#211E1F" points="95.8,69.7 83,56.6 83,56.5 81.4,56.5 81.4,72 83,72 83,58.9 95.9,72 95.9,72 97.5,72 97.5,56.5
					95.8,56.5 				"/>
                <polygon fill="#211E1F" points="101.6,72 103.4,72 103.4,64.8 114.6,64.8 114.6,63.2 103.4,63.2 103.4,58 115.9,58 115.9,56.5
					101.6,56.5 				"/>
                <path fill="#211E1F" d="M127,56.1c-5.4,0-9.2,3.4-9.2,8.2c0,4.8,3.7,8.2,9,8.2c5.4,0,9.2-3.4,9.2-8.2
					C136.1,60.3,133.2,56.1,127,56.1z M134.2,64.2c0,4.7-3.6,6.7-7.2,6.7c-4.4,0-7.3-2.6-7.3-6.6c0-3.2,2.1-6.5,6.9-6.7
					c0.1,0,0.3,0,0.4,0c2.6,0,4.3,1.1,4.6,1.3C133.2,60,134.2,62,134.2,64.2z"/>
                <path fill="#211E1F" d="M153.9,64.2c1.3-1,1.5-2.4,1.5-3.3c0-1.6-0.8-3-2-3.7c-1.1-0.6-2.4-0.6-3.4-0.6h-10.7V72h1.7v-6.8h6.8
					l6,6.8l0,0h2.4l-6.1-6.8C151.2,65.2,152.8,65,153.9,64.2z M153.6,60.8c0,0.8-0.3,1.5-0.7,2c-0.8,0.9-2.1,1-3.7,1h-8.1V58h9
					c0.8,0,1.8,0,2.5,0.6C153.2,59.1,153.6,59.9,153.6,60.8z"/>
                <path fill="#211E1F" d="M174.5,56.5l-6.3,13.8c-0.2-0.4-0.3-0.7-0.6-1.3l-5.8-12.4h-2.1V72h1.6v-13c0.1,0.1,0.1,0.3,0.2,0.5
					l5.8,12.4l0,0.1h1.7l5.8-12.6c0.1-0.2,0.2-0.3,0.2-0.5V72h1.6V56.5L174.5,56.5L174.5,56.5z"/>
			</g>
		</g>
        <g>
			<path fill="#211E1F" d="M179.4,58.5c0.2-0.4,0.4-0.7,0.7-1c0.3-0.3,0.6-0.5,1-0.7s0.8-0.2,1.2-0.2c0.4,0,0.8,0.1,1.2,0.2
				c0.4,0.2,0.7,0.4,1,0.7c0.3,0.3,0.5,0.6,0.7,1c0.2,0.4,0.3,0.8,0.3,1.2c0,0.4-0.1,0.9-0.3,1.2s-0.4,0.7-0.7,1s-0.6,0.5-1,0.7
				c-0.4,0.2-0.8,0.2-1.2,0.2c-0.4,0-0.8-0.1-1.2-0.2s-0.7-0.4-1-0.7s-0.5-0.6-0.7-1s-0.3-0.8-0.3-1.2
				C179.1,59.3,179.2,58.9,179.4,58.5z M179.9,60.8c0.1,0.3,0.3,0.6,0.5,0.8s0.5,0.4,0.8,0.6s0.6,0.2,1,0.2c0.4,0,0.7-0.1,1-0.2
				c0.3-0.1,0.6-0.3,0.8-0.6s0.4-0.5,0.5-0.8c0.1-0.3,0.2-0.7,0.2-1.1c0-0.4-0.1-0.7-0.2-1c-0.1-0.3-0.3-0.6-0.5-0.8
				s-0.5-0.4-0.8-0.6s-0.6-0.2-1-0.2c-0.4,0-0.7,0.1-1,0.2c-0.3,0.1-0.6,0.3-0.8,0.6s-0.4,0.5-0.5,0.8c-0.1,0.3-0.2,0.7-0.2,1
				C179.7,60.1,179.8,60.5,179.9,60.8z M182.4,58c0.4,0,0.8,0.1,1,0.3c0.2,0.2,0.3,0.4,0.3,0.8c0,0.3-0.1,0.6-0.3,0.7
				c-0.2,0.2-0.4,0.2-0.7,0.3l1,1.6h-0.6l-1-1.6h-0.6v1.6H181V58H182.4z M182.2,59.6c0.1,0,0.3,0,0.4,0s0.2,0,0.3-0.1
				s0.2-0.1,0.2-0.2s0.1-0.2,0.1-0.3c0-0.1,0-0.2-0.1-0.3s-0.1-0.1-0.2-0.2c-0.1,0-0.2-0.1-0.3-0.1c-0.1,0-0.2,0-0.3,0h-0.8v1.2
				L182.2,59.6L182.2,59.6z"/>
		</g>
	</g>
</g>
</svg>
