<?xml version="1.0" encoding="utf-8"?>
<!-- Generator: Adobe Illustrator 26.4.1, SVG Export Plug-In . SVG Version: 6.00 Build 0)  -->
<svg version="1.1" baseProfile="tiny" id="Layer_1" xmlns="http://www.w3.org/2000/svg" xmlns:xlink="http://www.w3.org/1999/xlink"
	 x="0px" y="0px" viewBox="0 0 992.87 448.21" overflow="visible" xml:space="preserve">
<g>
	<path fill="#EC008C" d="M868.68,0.01c0,0-144.13-4.05-387.98,164.67C236.85-4.04,92.72,0.01,92.72,0.01H0v322.64
		c3.02,0,94.28,0,94.28,0L93.89,86.07C216.56,74.04,475.6,270.15,480.66,273.99v0.06c0,0,0.02-0.01,0.04-0.03
		c0.02,0.02,0.04,0.03,0.04,0.03v-0.06c5.05-3.84,264.09-199.95,386.77-187.92l-0.39,236.58c0,0,91.26,0,94.28,0V0.01H868.68z"/>
	<path fill="#FFFFFF" d="M81.99,446.02c0.38-11.89,0.57-21.88,0.67-35c0-4.95,0.38-10.46,0.67-15.69l-0.48-0.1
		c-1.9,5.23-4.09,10.56-6.47,14.74l-19.5,36.05H46.8l-21.02-38.33c-2.38-4.38-4.57-9.61-6.47-14.55l-0.48,0.09
		c0.19,5.33,0.57,10.56,0.67,15.98c0,13.79,0.28,24.54,0.67,36.81H0c0.38-10.27,0.48-20.64,0.48-35.76c0-15.6-0.1-26.25-0.29-35.57
		h29.96c3.9,7.32,10.18,20.16,17.79,34.24c1.81,3.33,3.9,7.32,5.8,11.41c1.9-4.09,3.9-8.08,5.71-11.41
		c7.04-13.7,13.89-27.01,17.69-34.24h26.92c-0.19,9.32-0.38,19.97-0.38,35.57c0,15.12,0.1,25.49,0.57,35.76H81.99z M188.34,446.02
		c-0.57-2.28-2.38-7.32-4.85-13.51c-7.23-0.09-14.46-0.09-20.07-0.09c-5.04,0-12.46,0-19.5,0.09c-2.38,5.9-4.38,10.84-5.33,13.51
		h-24.64c9.7-18.26,29.01-60.12,33.48-71.34h33.29c4.76,11.22,23.97,52.7,34.15,71.34H188.34z M177.6,417.58
		c-2.85-6.85-5.8-13.7-8.47-19.5c-2.38-4.95-3.99-9.04-5.23-12.08c-1.33,3.04-3.04,7.04-5.33,12.27c-2.47,5.8-5.42,12.65-8.28,19.31
		c4.76,0.1,9.61,0.1,13.22,0.1C167.32,417.67,172.46,417.67,177.6,417.58z M223.74,446.02c0.28-10.94,0.28-20.55,0.28-35.67
		c0-15.22,0-24.83-0.28-35.67h22.16c-0.29,10.75-0.29,20.35-0.29,35.57c0,15.03,0,24.73,0.29,35.76H223.74z M307.82,374.68
		c30.53,0,41.19,10.46,41.19,34.53c0,24.83-9.99,36.81-41.47,36.81h-42.99c0.29-9.89,0.29-20.45,0.29-35.57
		c0-15.12,0-26.54-0.29-35.76H307.82z M327.23,409.59c0-14.08-6.09-17.69-19.98-17.69c-7.32,0-14.08,0.1-20.64,0.38
		c-0.1,5.99-0.19,12.65-0.19,18.83c0,7.42,0,12.84,0.09,17.22c7.33,0.47,12.75,0.28,20.55,0.28
		C320.76,428.61,327.23,424.43,327.23,409.59z M438.71,374.68c-0.1,1.81-0.1,5.14-0.1,7.8c0,2.76-0.09,6.47,0.1,8.37
		c-15.89-0.09-39.19-0.19-52.79-0.19v11.89c15.98,0,39.19,0,51.84-0.29c-0.1,3.43-0.1,11.32-0.1,14.93
		c-12.46-0.19-35.86-0.38-51.74-0.38v12.27c13.6,0,37.76-0.1,52.79-0.19c-0.19,2-0.19,5.9-0.19,8.85c0,2.66,0,6.18,0.19,8.28h-74.95
		c0.38-9.51,0.38-20.45,0.38-35.67c0-15.12,0-26.54-0.38-35.67H438.71z M542.59,374.68c-0.19,7.99-0.29,20.45-0.29,35.57
		c0,15.69,0,26.35,0.19,35.76h-22.73c-4.38-6.66-22.45-25.02-34.53-37.86c-3.23-3.42-6.47-7.04-9.04-10.75
		c0.38,5.61,0.57,11.04,0.76,16.27c0.09,16.46,0.09,27.68,0.38,32.34h-20.93c0.09-9.51,0.28-20.45,0.28-35.67
		c0-15.12,0-26.35-0.28-35.67h25.87c2.95,4.85,23.11,25.11,34.05,37.19c2.76,3.04,5.42,6.37,7.42,9.99
		c-0.48-5.42-0.76-10.75-0.76-15.5c0-12.56-0.28-25.97-0.76-31.67H542.59z M583.4,407.5v1.52c18.17,0,35.76,0,51.18-0.29
		c-0.29,4.28-0.29,12.65-0.29,16.93c-15.12,0.1-32.82-0.09-50.79-0.09c0.19,7.32,0.38,14.55,0.67,20.45h-22.64
		c0.19-9.8,0.28-20.55,0.28-35.67s0-25.97-0.19-35.67h73.72c-0.1,2.28-0.19,5.8-0.19,8.66c0,3.42,0.09,7.13,0.19,9.7
		c-18.64-0.09-37-0.19-51.94-0.19V407.5z M694.03,448.21c-31.39,0-46.99-14.55-46.99-38.52c0-24.35,16.93-37.19,46.99-37.19
		c30.15,0,47.27,12.84,47.27,37.19C741.3,433.65,725.51,448.21,694.03,448.21z M719.05,410.06c0-12.65-7.32-19.31-24.92-19.31
		c-17.6,0-25.02,6.47-25.02,19.31c0,12.75,7.32,19.88,25.02,19.88C711.91,429.94,719.05,422.62,719.05,410.06z M817.4,417.67
		c12.37,1.33,17.5,3.99,20.64,13.89c1.81,6.09,3.52,11.51,4.66,14.46h-20.36c-3.52,0-3.99-0.95-6.28-9.7
		c-2.66-10.18-4.95-11.99-16.17-11.99c-7.33,0-11.03,0-22.45,0.09c0.19,8.66,0.48,16.27,1.05,21.59h-22.64
		c0.1-10.37,0.29-20.36,0.29-35.67c0-15.12-0.1-25.4-0.29-35.67h50.51c20.83,0,31.86,7.13,31.86,21.69
		c0,12.46-6.09,19.02-20.83,21.02V417.67z M801.71,408.92c10.94,0,15.5-2.95,15.5-9.04c0-7.13-4.76-8.94-16.36-8.85
		c-4.57-0.09-16.74,0-23.69,0.28c0,5.9,0,11.7,0.09,17.41C782.02,408.83,791.63,408.92,801.71,408.92z M939.04,446.33
		c0.38-11.94,0.57-21.97,0.67-35.16c0-4.97,0.38-10.51,0.67-15.76l-0.48-0.1c-1.91,5.25-4.11,10.6-6.5,14.81l-19.58,36.21H903.7
		l-21.11-38.5c-2.39-4.39-4.59-9.65-6.5-14.62l-0.48,0.09c0.19,5.35,0.57,10.6,0.67,16.05c0,13.85,0.29,24.65,0.67,36.97h-20.25
		c0.38-10.32,0.48-20.73,0.48-35.92c0-15.67-0.1-26.37-0.29-35.73h30.09c3.92,7.36,10.22,20.25,17.87,34.39
		c1.81,3.34,3.92,7.36,5.83,11.46c1.91-4.11,3.92-8.12,5.73-11.46c7.07-13.76,13.95-27.13,17.77-34.39h27.04
		c-0.19,9.36-0.38,20.06-0.38,35.73c0,15.19,0.1,25.6,0.57,35.92H939.04z M992.87,384.91c0,6.61-3.49,10.2-10.94,10.2
		c-7.45,0-10.92-3.59-10.92-10.2c0-6.65,3.54-10.29,10.92-10.29C989.31,374.61,992.87,378.25,992.87,384.91z M990.32,384.86
		c0-5.23-2.53-7.86-8.37-7.86c-5.83,0-8.39,2.63-8.39,7.86c0,5.21,2.56,7.86,8.39,7.86C987.76,392.72,990.32,390.07,990.32,384.86z
		 M984.56,386.09c1.81,0.19,2.7,0.6,3.21,2.22c0.29,0.89,0.51,1.71,0.72,2.15h-3.13c-0.39,0-0.53-0.12-0.65-0.56
		c-0.55-2.22-0.72-2.84-2.41-2.84c-0.94,0-1.86,0.02-2.82,0.02c0.02,1.35,0.07,2.51,0.12,3.37h-3.37c0-1.5,0.05-2.99,0.05-5.21
		c0-2.56-0.05-4.27-0.05-6h6.85c2.84,0,4.6,0.63,4.6,3.62c0,2.14-0.96,2.94-3.11,3.18V386.09z M984.44,383.24
		c0-1.16-0.67-1.4-2.65-1.4c-0.51,0-1.66,0.02-2.36,0.07c0,0.89,0,1.78,0,2.63c0.46,0,1.35,0.02,2.48,0.02
		C983.76,384.57,984.44,384.13,984.44,383.24z"/>
</g>
</svg>
