<svg xmlns="http://www.w3.org/2000/svg" width="25.636" height="29.431" viewBox="0 0 25.636 29.431">
    <path id="Path_1" data-name="Path 1" d="M1739.715,8.917l.9,17.41a1.143,1.143,0,0,1-1.118,1.163h-19.677a1.142,1.142,0,0,1-1.117-1.163l.9-17.41h20.111M1732.638,0h-5.959a3.8,3.8,0,0,0-3.725,3.878v3.1h-5.215l-.9,19.349a3.043,3.043,0,0,0,2.98,3.1H1739.5a3.042,3.042,0,0,0,2.98-3.1l-.9-19.349h-5.215v-3.1A3.8,3.8,0,0,0,1732.638,0Zm-7.449,6.979v-3.1a1.521,1.521,0,0,1,1.49-1.551h5.959a1.521,1.521,0,0,1,1.49,1.551v3.1h-8.939Z" transform="translate(-1716.84)"/>
</svg>
